<svg width="130" height="32" viewBox="0 0 130 32" fill="none" xmlns="http://www.w3.org/2000/svg">
<path d="M16.2299 8.80048C20.0795 8.80064 23.2001 11.9162 23.2003 15.7599V25.0405C23.2001 28.8843 20.0795 31.9998 16.2299 32C12.3802 32 9.25884 28.8843 9.25868 25.0405L9.25404 22.7553H6.9704C3.12083 22.7551 0.00017483 19.6396 0 15.7958C-3.24507e-07 11.952 3.12073 8.83576 6.9704 8.8356L16.2299 8.80048Z" fill="#FF5B71"/>
<path d="M15.987 0C19.7947 0.00014723 22.8814 3.08689 22.8816 6.89462V9.18292H25.1355C28.9266 9.18308 31.9997 12.2782 31.9997 16.0963C31.9995 19.9143 28.9265 23.0095 25.1355 23.0097H15.9823C12.1911 23.0097 9.11746 19.9143 9.1173 16.0963V13.6361L9.09234 6.92118C9.07794 3.1031 12.1689 3.56905e-06 15.987 0Z" fill="#E41F35" fill-opacity="0.8"/>
<path d="M56.9134 25.6003H51.9883L44.0382 11.7752H43.9257C43.959 12.3501 43.9882 12.9293 44.0132 13.5126C44.0382 14.096 44.0632 14.6794 44.0882 15.2627C44.1132 15.8377 44.1382 16.4168 44.1632 17.0002V25.6003H40.7007V7.32507H45.5883L53.5258 21.0127H53.6133C53.5967 20.4461 53.5759 19.8836 53.5508 19.3252C53.5258 18.7669 53.5008 18.2085 53.4759 17.6502C53.4592 17.0919 53.4425 16.5336 53.4258 15.9752V7.32507H56.9134V25.6003Z" fill="#161616"/>
<path d="M66.9885 11.3627C68.2802 11.3627 69.3927 11.6127 70.326 12.1127C71.2594 12.6044 71.9803 13.321 72.4886 14.2627C72.9969 15.2044 73.2511 16.3544 73.2511 17.7128V19.5628H64.2385C64.2802 20.6378 64.601 21.4837 65.201 22.1003C65.8093 22.7087 66.651 23.0128 67.726 23.0128C68.6177 23.0128 69.4344 22.9211 70.1761 22.7379C70.9177 22.5545 71.6803 22.2795 72.4636 21.9128V24.8628C71.7719 25.2045 71.0469 25.4545 70.2886 25.6129C69.5386 25.7712 68.626 25.8504 67.551 25.8504C66.151 25.8504 64.9093 25.5921 63.8259 25.0754C62.751 24.5587 61.9051 23.7712 61.2885 22.7128C60.6801 21.6545 60.376 20.3211 60.376 18.7128C60.376 17.0795 60.6509 15.721 61.2009 14.6378C61.7593 13.5461 62.5343 12.7294 63.5259 12.1877C64.5176 11.6377 65.6718 11.3627 66.9885 11.3627ZM67.0135 14.0753C66.2718 14.0753 65.6552 14.3127 65.1635 14.7878C64.6802 15.2627 64.401 16.0086 64.3259 17.0252H69.6761C69.6677 16.4586 69.5635 15.9544 69.3635 15.5127C69.1718 15.071 68.8802 14.721 68.4886 14.4627C68.1052 14.2044 67.6135 14.0753 67.0135 14.0753Z" fill="#161616"/>
<path d="M87.8388 25.6003L86.7636 20.7128C86.7052 20.4211 86.6092 19.9919 86.4764 19.4252C86.3428 18.8503 86.1972 18.2378 86.0388 17.5878C85.8884 16.9294 85.7468 16.321 85.614 15.7627C85.4884 15.2044 85.3972 14.796 85.3388 14.5377H85.226C85.1676 14.796 85.0764 15.2044 84.9516 15.7627C84.826 16.321 84.6844 16.9294 84.526 17.5878C84.3764 18.2461 84.2348 18.8669 84.1012 19.4503C83.9676 20.0252 83.8676 20.4628 83.8012 20.7628L82.6764 25.6003H78.5762L74.6011 11.6251H78.4011L80.0139 17.8127C80.1219 18.2461 80.2259 18.7627 80.3259 19.3627C80.4259 19.9544 80.514 20.5295 80.5884 21.0878C80.6724 21.6378 80.7348 22.0753 80.7764 22.4003H80.8764C80.8932 22.1586 80.926 21.8378 80.9764 21.4378C81.0348 21.0378 81.0972 20.6252 81.1636 20.2003C81.2388 19.7669 81.3052 19.3795 81.3636 19.0378C81.43 18.6878 81.4804 18.4502 81.514 18.3252L83.2388 11.6251H87.4388L89.0765 18.3252C89.1349 18.5669 89.2093 18.9503 89.3013 19.4753C89.4013 20.0003 89.4885 20.542 89.5637 21.1003C89.6389 21.6503 89.6805 22.0837 89.6885 22.4003H89.7885C89.8221 22.1169 89.8805 21.6961 89.9637 21.1378C90.0469 20.5795 90.1429 19.9961 90.2509 19.3878C90.3677 18.7711 90.4845 18.2461 90.6013 17.8127L92.2765 11.6251H96.0141L91.9885 25.6003H87.8388Z" fill="#161616"/>
<path d="M108.464 10.2876C107.722 10.2876 107.064 10.4335 106.489 10.7251C105.922 11.0084 105.443 11.4209 105.051 11.9626C104.668 12.5043 104.377 13.1585 104.177 13.9251C103.977 14.6918 103.877 15.5543 103.877 16.5127C103.877 17.8044 104.035 18.9085 104.352 19.8252C104.677 20.7336 105.177 21.4294 105.851 21.9127C106.526 22.3878 107.398 22.6252 108.464 22.6252C109.206 22.6252 109.947 22.5419 110.689 22.3753C111.439 22.2086 112.251 21.9711 113.126 21.6627V24.9128C112.318 25.2461 111.522 25.4837 110.739 25.6253C109.956 25.7753 109.077 25.8503 108.102 25.8503C106.218 25.8503 104.668 25.4628 103.451 24.6878C102.243 23.9044 101.347 22.8127 100.764 21.4127C100.181 20.0044 99.8887 18.3627 99.8887 16.4877C99.8887 15.1043 100.077 13.8377 100.451 12.6877C100.826 11.5376 101.377 10.5418 102.101 9.7001C102.826 8.85841 103.722 8.2084 104.789 7.75007C105.856 7.29173 107.081 7.06256 108.464 7.06256C109.373 7.06256 110.281 7.17923 111.189 7.41257C112.106 7.63758 112.981 7.95008 113.814 8.35008L112.564 11.5001C111.881 11.1752 111.194 10.8918 110.502 10.6501C109.81 10.4084 109.13 10.2876 108.464 10.2876Z" fill="#E41F35"/>
<path d="M129.426 18.5878C129.426 19.7545 129.268 20.7878 128.952 21.6878C128.643 22.5879 128.189 23.3503 127.589 23.9754C126.997 24.592 126.281 25.0587 125.439 25.3754C124.605 25.6921 123.664 25.8504 122.614 25.8504C121.63 25.8504 120.726 25.6921 119.901 25.3754C119.085 25.0587 118.373 24.592 117.764 23.9754C117.164 23.3503 116.697 22.5879 116.364 21.6878C116.039 20.7878 115.876 19.7545 115.876 18.5878C115.876 17.0378 116.152 15.7252 116.701 14.6502C117.251 13.5753 118.035 12.7585 119.051 12.2002C120.068 11.6419 121.281 11.3627 122.689 11.3627C123.997 11.3627 125.156 11.6419 126.164 12.2002C127.181 12.7585 127.977 13.5753 128.552 14.6502C129.135 15.7252 129.426 17.0378 129.426 18.5878ZM119.764 18.5878C119.764 19.5045 119.864 20.2753 120.064 20.9003C120.264 21.5253 120.577 21.9962 121.001 22.3128C121.426 22.6295 121.981 22.7879 122.664 22.7879C123.339 22.7879 123.885 22.6295 124.301 22.3128C124.726 21.9962 125.035 21.5253 125.226 20.9003C125.426 20.2753 125.526 19.5045 125.526 18.5878C125.526 17.6628 125.426 16.8961 125.226 16.2878C125.035 15.671 124.726 15.2086 124.301 14.9002C123.877 14.5919 123.322 14.4378 122.639 14.4378C121.63 14.4378 120.897 14.7836 120.439 15.4753C119.989 16.1669 119.764 17.2044 119.764 18.5878Z" fill="#E41F35"/>
</svg>
