<?xml version="1.0" encoding="UTF-8"?>
<svg xmlns="http://www.w3.org/2000/svg" viewBox="0 0 174.961 34.001" fill="none" role="img" aria-label="Boots Pharmacy">
  <path fill-rule="evenodd" clip-rule="evenodd" fill="#012169" d="M81.6024 21V6.195H86.8364C87.6894 6.195 88.4464 6.325 89.1064 6.585C89.7674 6.846 90.2994 7.205 90.7034 7.66C91.1074 8.116 91.4114 8.635 91.6164 9.218C91.8214 9.8 91.9244 10.434 91.9244 11.118C91.9244 11.801 91.8214 12.436 91.6164 13.021C91.4168 13.598 91.1067 14.1306 90.7034 14.589C90.2994 15.048 89.7674 15.408 89.1064 15.668C88.4464 15.928 87.6894 16.058 86.8364 16.058H84.2194V21H81.6024ZM84.2194 13.54H86.8364C87.6634 13.54 88.2834 13.314 88.6964 12.865C89.1104 12.416 89.3164 11.84 89.3164 11.137C89.3164 10.427 89.1104 9.847 88.6964 9.398C88.2834 8.949 87.6634 8.725 86.8364 8.725H84.2194V13.539V13.54ZM93.8194 21V6.195H96.2794V12.201C96.5204 12.019 96.7244 11.877 96.8894 11.776C97.0564 11.676 97.3114 11.575 97.6564 11.474C98.0014 11.373 98.3764 11.322 98.7794 11.322C99.3134 11.322 99.8084 11.404 100.264 11.566C100.718 11.7279 101.136 11.9769 101.494 12.299C101.859 12.624 102.144 13.062 102.349 13.612C102.554 14.162 102.656 14.799 102.656 15.522V21H100.196V15.922C100.196 14.424 99.5414 13.676 98.2324 13.676C96.9304 13.676 96.2794 14.411 96.2794 15.883V21H93.8194ZM104.649 16.283C104.649 14.903 105.139 13.731 106.119 12.768C107.098 11.804 108.288 11.322 109.688 11.322C110.703 11.322 111.582 11.615 112.324 12.202V11.498H114.785V21H112.325V20.385C111.602 20.971 110.723 21.264 109.687 21.264C108.796 21.2709 107.92 21.0396 107.148 20.594C106.388 20.1618 105.756 19.535 105.318 18.778C104.874 18.0219 104.644 17.1598 104.649 16.283ZM107.061 16.283C107.061 16.993 107.319 17.606 107.837 18.124C108.354 18.642 108.971 18.9 109.687 18.9C110.417 18.9 111.038 18.642 111.553 18.124C112.067 17.606 112.324 16.993 112.324 16.284C112.324 15.58 112.067 14.97 111.553 14.452C111.312 14.2016 111.022 14.0035 110.702 13.87C110.381 13.7365 110.036 13.6705 109.688 13.676C108.971 13.676 108.354 13.935 107.837 14.452C107.319 14.97 107.061 15.58 107.061 16.283ZM117.783 21V11.498H120.244V12.201C120.682 11.8714 121.182 11.6354 121.714 11.508C122.238 11.384 122.965 11.322 123.896 11.322V13.676C123.278 13.676 122.749 13.712 122.31 13.783C121.87 13.855 121.517 13.954 121.25 14.081C120.998 14.1954 120.782 14.3762 120.625 14.604C120.475 14.824 120.375 15.058 120.322 15.302C120.266 15.5962 120.24 15.8954 120.244 16.195V21H117.783ZM125.898 21V11.498H128.359V12.201C128.626 12.006 128.839 11.859 128.999 11.761C129.159 11.664 129.403 11.566 129.731 11.469C130.082 11.368 130.446 11.3185 130.811 11.322C132.171 11.322 133.174 11.794 133.818 12.738C134.208 12.2569 134.714 11.8837 135.288 11.654C135.83 11.4368 136.409 11.3241 136.992 11.322C138.112 11.322 139.012 11.667 139.692 12.357C140.372 13.047 140.712 14.102 140.712 15.521V21H138.252V15.922C138.252 15.46 138.205 15.072 138.11 14.76C138.016 14.447 137.88 14.216 137.705 14.066C137.548 13.9269 137.364 13.8224 137.163 13.759C136.952 13.7002 136.733 13.6722 136.513 13.676C135.193 13.676 134.531 14.411 134.531 15.883V21H132.071V15.922C132.071 15.46 132.023 15.072 131.929 14.76C131.834 14.447 131.699 14.216 131.523 14.066C131.366 13.9269 131.182 13.8224 130.981 13.759C130.77 13.7003 130.552 13.6723 130.332 13.676C129.017 13.676 128.359 14.411 128.359 15.883V21H125.898ZM142.715 16.283C142.715 14.903 143.205 13.731 144.185 12.768C145.165 11.804 146.355 11.322 147.754 11.322C148.77 11.322 149.648 11.615 150.391 12.202V11.498H152.851V21H150.391V20.385C149.668 20.971 148.789 21.264 147.754 21.264C146.863 21.271 145.986 21.0397 145.214 20.594C144.454 20.1618 143.822 19.535 143.384 18.778C142.94 18.0219 142.71 17.1598 142.715 16.283ZM145.127 16.283C145.127 16.993 145.386 17.606 145.903 18.124C146.421 18.642 147.038 18.9 147.753 18.9C148.483 18.9 149.105 18.642 149.619 18.124C150.133 17.606 150.391 16.993 150.391 16.284C150.391 15.58 150.133 14.97 149.619 14.452C149.378 14.2016 149.088 14.0035 148.768 13.87C148.447 13.7365 148.102 13.6705 147.754 13.676C147.038 13.676 146.421 13.935 145.904 14.452C145.386 14.97 145.127 15.58 145.127 16.283ZM155.049 16.283C155.049 14.903 155.539 13.731 156.519 12.768C157.499 11.804 158.689 11.322 160.088 11.322C160.944 11.3144 161.787 11.5243 162.539 11.932C163.269 12.3217 163.89 12.8875 164.346 13.578L162.246 14.798C162.004 14.4505 161.681 14.1668 161.305 13.9714C160.93 13.776 160.512 13.6746 160.088 13.676C159.372 13.676 158.755 13.935 158.238 14.452C157.72 14.97 157.461 15.58 157.461 16.283C157.461 16.993 157.72 17.606 158.237 18.124C158.755 18.642 159.372 18.9 160.087 18.9C160.531 18.9044 160.968 18.7944 161.356 18.5807C161.745 18.367 162.072 18.0568 162.305 17.68L164.385 18.92C163.933 19.6323 163.308 20.2185 162.568 20.624C161.811 21.0493 160.957 21.2699 160.088 21.264C159.197 21.271 158.32 21.0397 157.548 20.594C156.788 20.1618 156.156 19.535 155.718 18.778C155.274 18.0219 155.044 17.1598 155.049 16.283ZM165.079 11.498H167.803L170.186 18.061L172.539 11.498H174.961L169.707 26.058H167.305L169.023 21.264L165.079 11.498ZM43.9284 19.182C43.3314 20.114 42.4604 21.282 41.5884 21.639C41.2494 21.787 40.6954 21.841 40.4114 21.544C40.0164 20.951 40.1874 20.156 40.2514 19.468C40.8354 16.735 42.3644 14.384 44.0654 12.108C44.0654 12.108 45.5404 10.294 45.6924 10.434C46.4024 11.082 46.4444 12.677 45.9884 14.511C45.5784 16.169 44.7564 17.688 43.9284 19.182ZM8.55041 28.385L8.43341 28.503C7.79341 27.723 7.42141 26.797 7.62341 25.759C7.76141 24.975 8.12741 24.25 8.77041 23.705C8.74958 24.1886 8.84388 24.6702 9.04555 25.1102C9.24722 25.5502 9.55049 25.9361 9.93041 26.236C9.54741 26.988 9.06841 27.671 8.55041 28.385ZM15.7534 13.695C15.4444 13.622 15.0204 13.505 14.8714 13.124C14.7874 12.929 14.7554 12.73 14.9034 12.488C15.1584 12.171 15.5184 12.108 15.9234 12.181C16.3284 12.254 16.4764 12.361 16.4764 12.361L15.7534 13.696V13.695ZM19.5794 13.537L20.2284 13.918L19.3034 14.035L19.5794 13.537ZM17.1244 28.598C15.2644 29.879 12.7674 30.398 10.4714 29.71C11.2364 28.842 13.0644 26.649 14.0424 24.954C15.8924 21.946 17.3054 18.758 18.7504 15.581C19.4094 15.565 20.2804 15.475 20.9934 15.294C21.9814 17.021 21.9394 19.606 21.5464 21.586C20.9934 24.298 19.5164 26.871 17.1244 28.598ZM23.1724 12.648L21.5984 13.516C21.2084 13.036 20.7464 12.721 20.1854 12.371C21.7804 9.565 23.3314 6.736 25.6384 4.216L26.4464 3.496C27.1364 4.364 27.1904 5.583 27.1364 6.769C26.8284 9.152 25.2984 11.333 23.1724 12.648ZM35.5864 15.199C34.5224 17.668 33.1524 20.019 31.3244 22.159C30.6964 22.794 29.8704 23.702 29.0814 23.589C28.9515 23.5704 28.8275 23.5224 28.7189 23.4488C28.6103 23.3751 28.5198 23.2778 28.4544 23.164C27.9414 22.005 28.6794 20.488 29.1024 19.542C30.5737 16.2546 32.6343 13.2643 35.1824 10.719C35.5334 10.444 35.9044 9.999 36.3724 10.264C36.8614 10.539 36.7124 11.196 36.7124 11.673C36.4894 12.911 36.0324 14.056 35.5864 15.199ZM57.9364 14.342C57.5744 13.558 57.8524 12.477 58.5104 11.821C58.9564 11.365 59.6634 11.244 60.2574 11.361C59.4824 12.323 58.7004 13.357 57.9364 14.342ZM62.6554 16.376C61.9854 16.979 60.9764 17.16 60.0954 16.947C59.4047 16.7612 58.8018 16.3372 58.3934 15.75C59.3814 14.362 60.4764 13.018 61.4864 11.63C62.7294 12.393 63.3034 13.79 63.0814 15.2C62.9634 15.602 62.8574 16.005 62.6554 16.376ZM64.3494 14.715C64.2954 13.084 63.6224 11.609 62.2194 10.582L64.3764 7.595C64.7594 9.469 65.3524 11.577 64.7594 13.558C64.6244 14.01 64.5294 14.333 64.3494 14.715ZM67.0004 13.028C66.9604 10.603 65.2364 8.908 65.2154 6.599C65.4494 6.439 65.7464 6.218 65.9284 6.005C66.1774 5.696 66.4384 5.258 66.1934 4.809C66.1188 4.73913 66.0281 4.68878 65.9294 4.66244C65.8306 4.63609 65.7269 4.63457 65.6274 4.658C65.0284 4.857 64.8364 5.482 64.6114 5.932L61.1024 10.264C59.8384 10.062 58.5844 10.317 57.7024 11.291C56.6384 12.339 56.5004 14.12 57.0114 15.464L55.8844 16.608C55.1194 17.265 54.2394 18.195 53.4184 18.398C53.1314 18.452 52.8554 18.371 52.7274 18.133C52.5134 17.587 52.8374 17.017 53.0144 16.533L58.1084 4.181L65.0154 2.545L66.0804 0.742L59.0824 1.592L59.7844 0L57.7024 0.117L56.9044 1.848L53.0694 2.31L51.5654 5.766L55.4554 4.834C54.9134 5.904 54.5454 6.726 53.9704 7.764L53.4924 7.574C51.0804 6.429 48.0674 7.287 46.1274 8.601C43.4814 7.573 40.6654 8.686 38.5284 10.084C38.3264 9.394 37.7534 8.654 36.9984 8.485C35.2324 8.052 33.4614 9.415 32.5434 10.11C32.2742 9.92582 31.9858 9.77125 31.6834 9.649C30.9514 9.363 30.0954 9.491 29.3664 9.745C29.8664 8.929 30.3024 8.082 30.4934 7.129C30.8234 5.127 30.0254 3.157 28.3574 1.908C28.8474 1.323 29.5274 1.038 30.1004 0.573C30.1004 0.573 30.2864 0.469 30.2084 0.288C30.1384 0.126 30.0644 0.171 29.9614 0.17C28.9954 0.339 27.7964 1.026 27.3314 1.274C25.0154 0.352 22.2574 0.128 19.7064 0.551C15.7744 1.313 12.1064 3.114 9.41841 6.451C8.31241 7.911 7.29541 9.978 8.34541 11.768C9.07841 12.774 10.2054 13.357 11.4584 13.124C12.2884 12.933 12.9684 12.203 13.2974 11.44C12.6174 11.323 11.7674 10.955 11.5974 10.182C11.3634 8.476 12.2244 7.075 13.2024 5.794C15.6144 3.125 18.7284 1.769 22.1724 1.568C23.3624 1.578 24.5924 1.621 25.4134 2.396L23.4794 3.623C20.7794 5.593 19.0164 8.505 17.2834 11.175C16.3434 11.064 15.3604 11.1 14.5624 11.535C14.0954 11.842 13.7424 12.319 13.7224 12.869C13.7014 13.779 14.5304 14.499 15.2854 14.893L15.0624 15.423L12.8524 20.231C12.5084 20.917 12.1924 21.65 11.8894 22.203C11.2624 21.938 10.4924 21.713 9.75941 21.831C8.25941 21.957 6.82541 23.281 6.38941 24.69C5.71941 26.436 6.18741 28.397 7.36641 29.762C6.70841 30.674 5.69841 31.308 4.68941 31.648C4.00941 31.808 3.06341 32.048 2.43541 31.574C2.92441 31.5 3.39241 31.308 3.73241 30.928C4.11541 30.568 4.28441 29.975 4.17841 29.55C4.04041 28.958 3.45541 28.376 2.85041 28.238C2.52382 28.141 2.17969 28.1182 1.84316 28.1713C1.50664 28.2245 1.18625 28.3521 0.905413 28.545C0.182413 29.01 -0.0835868 29.838 0.0224132 30.695C0.129413 31.691 1.12841 32.422 1.98941 32.74C4.47641 33.586 7.01641 32.246 8.78041 31.119C9.79341 31.693 10.6324 32.099 11.6724 32.359C15.5344 33.324 19.3874 31.989 21.9274 28.905C24.6694 25.759 25.2854 20.771 23.6074 16.99C23.3145 16.2671 22.9844 15.5598 22.6184 14.871C23.3834 14.596 24.1064 14.225 24.8404 13.865C26.2744 13.24 27.4324 12.096 28.7614 11.195C29.5474 10.857 30.6534 10.667 31.4394 11.132C29.6625 12.9051 28.2347 14.9964 27.2304 17.297C26.3804 19.479 25.6374 22.18 26.8274 24.447C27.0581 24.8342 27.3945 25.1475 27.7972 25.35C28.1999 25.5525 28.652 25.6358 29.1004 25.59C32.3104 25.252 34.6374 22.075 36.1774 19.49C37.4754 17.011 38.7514 14.48 38.7824 11.535C40.3674 10.317 42.1094 9.342 44.1924 9.437C41.9084 11.248 40.2384 13.706 39.0474 16.174C38.2194 18.07 37.5714 20.888 39.2394 22.614C39.8994 23.345 40.9904 23.445 41.8964 23.164C45.1494 22.067 47.3944 18.246 48.1364 14.934C48.4644 13.145 48.4224 11.048 47.0834 9.629C47.4714 9.324 47.7214 9.181 47.9594 9.03C49.5254 8.042 51.9834 7.945 53.5344 8.93L50.1014 16.555C49.7614 17.435 49.3364 18.535 49.9004 19.446C50.2184 20.04 50.8564 20.294 51.4404 20.443C54.1194 20.675 55.9364 18.43 57.7204 16.629C58.5194 17.837 59.8594 18.388 61.2834 18.419V18.462C61.0644 18.917 60.7304 19.233 60.3374 19.522C59.4354 20.178 58.5134 20.432 57.5314 20.728L41.2264 24.615L30.6104 27.17C29.0914 27.604 27.4324 28.673 26.7844 30.24C26.3164 31.374 26.2204 33.037 27.0924 34.001C27.3164 33.641 27.7084 33.355 28.0704 33.154L56.9154 24.214C58.0734 23.844 59.2434 23.515 60.2844 22.859C62.1234 21.799 62.6284 19.786 63.4264 18.092C63.4264 18.092 63.4854 18.055 63.5554 18.021C63.9874 17.808 64.7394 17.275 64.7394 17.275C66.1634 16.259 66.9394 14.661 67.0004 13.029V13.028Z"/>
</svg>
